HIERARCHY
ROOT Hips
{
	OFFSET 55.310501 45.591206 43.872097
	CHANNELS 6 Xposition Yposition Zposition Zrotation Xrotation Yrotation
	JOINT Chest
	{
		OFFSET -0.153500 1.163101 7.852402
		CHANNELS 6 Xposition Yposition Zposition Zrotation Xrotation Yrotation
		JOINT Chest2
		{
			OFFSET 0.000000 0.000000 3.343300
			CHANNELS 6 Xposition Yposition Zposition Zrotation Xrotation Yrotation
			JOINT Neck
			{
				OFFSET 0.000000 0.000000 7.785500
				CHANNELS 6 Xposition Yposition Zposition Zrotation Xrotation Yrotation
				JOINT Head
				{
					OFFSET 0.000000 0.000000 2.173901
					CHANNELS 6 Xposition Yposition Zposition Zrotation Xrotation Yrotation
					End Site
					{
						OFFSET 0.000000 0.000000 10.528198
					}
				}
			}
			JOINT LeftCollar
			{
				OFFSET 2.676300 -1.652401 4.938301
				CHANNELS 6 Xposition Yposition Zposition Zrotation Xrotation Yrotation
				JOINT LeftShoulder
				{
					OFFSET 4.299000 0.000000 0.000000
					CHANNELS 6 Xposition Yposition Zposition Zrotation Xrotation Yrotation
					JOINT LeftElbow
					{
						OFFSET 0.000000 0.000000 -10.245102
						CHANNELS 6 Xposition Yposition Zposition Zrotation Xrotation Yrotation
						JOINT LeftWrist
						{
							OFFSET 0.000000 0.000000 -12.703300
							CHANNELS 6 Xposition Yposition Zposition Zrotation Xrotation Yrotation
							End Site
							{
								OFFSET 0.000000 0.000000 -2.173901
							}
						}
					}
				}
			}
			JOINT RightCollar
			{
				OFFSET -2.534599 -1.686401 5.195000
				CHANNELS 6 Xposition Yposition Zposition Zrotation Xrotation Yrotation
				JOINT RightShoulder
				{
					OFFSET -4.144100 0.000000 0.000000
					CHANNELS 6 Xposition Yposition Zposition Zrotation Xrotation Yrotation
					JOINT RightElbow
					{
						OFFSET 0.000000 0.000000 -10.116501
						CHANNELS 6 Xposition Yposition Zposition Zrotation Xrotation Yrotation
						JOINT RightWrist
						{
							OFFSET 0.000000 0.000000 -12.937801
							CHANNELS 6 Xposition Yposition Zposition Zrotation Xrotation Yrotation
							End Site
							{
								OFFSET 0.000000 0.000000 -2.173901
							}
						}
					}
				}
			}
		}
	}
	JOINT LeftHip
	{
		OFFSET 2.175598 0.064499 -2.662899
		CHANNELS 6 Xposition Yposition Zposition Zrotation Xrotation Yrotation
		JOINT LeftKnee
		{
			OFFSET 0.000000 -0.000004 -18.585800
			CHANNELS 6 Xposition Yposition Zposition Zrotation Xrotation Yrotation
			JOINT LeftAnkle
			{
				OFFSET 0.000000 0.000000 -18.979500
				CHANNELS 6 Xposition Yposition Zposition Zrotation Xrotation Yrotation
				End Site
				{
					OFFSET 0.000000 -9.264000 0.000000
				}
			}
		}
	}
	JOINT RightHip
	{
		OFFSET -2.092400 -0.058102 -2.581200
		CHANNELS 6 Xposition Yposition Zposition Zrotation Xrotation Yrotation
		JOINT RightKnee
		{
			OFFSET 0.000000 -0.000004 -18.665001
			CHANNELS 6 Xposition Yposition Zposition Zrotation Xrotation Yrotation
			JOINT RightAnkle
			{
				OFFSET 0.000000 0.000000 -18.566601
				CHANNELS 6 Xposition Yposition Zposition Zrotation Xrotation Yrotation
				End Site
				{
					OFFSET 0.000000 -8.497601 0.000000
				}
			}
		}
	}
}
MOTION
Frames: 6
Frame Time: 0.041667
25.675800 66.556290 40.563889 683.557081 24.709488 -20.635029 -0.153502 1.163103 7.852407 42.461862 -8.114704 -8.325035 0.000004 0.000014 3.343305 -19.316752 -11.079900 -1.873240 -0.000005 -0.000001 7.785500 52.025366 -9.756405 -1.896569 -0.000003 0.000001 2.173911 11.169500 -5.635129 12.892038 2.676296 -1.652403 4.938294 -4.371479 13.528226 2.866269 4.299005 0.000011 -0.000006 15.726753 1.176024 -101.986691 -0.000003 0.000010 -10.245107 10.442693 724.944039 -2.205403 0.000010 -0.000002 -12.703319 914.552877 -131.924462 429.913526 -2.534601 -1.686407 5.194991 -3.763363 6.261751 1.767357 -4.144094 -0.000002 -0.000003 52.122109 -19.154656 153.598045 -0.000013 -0.000012 -10.116498 -87.325451 -12.660903 -21.257405 0.000003 -0.000003 -12.937806 -360.520252 -369.576372 17.877798 2.175589 0.064498 -2.662895 -273.803378 -40.342256 79.779007 0.000001 -0.000009 -18.585800 -0.465054 -249.507603 28.724405 -0.000012 -0.000004 -18.979500 326.902389 23.028246 -16.283321 -2.092400 -0.058098 -2.581196 242.270580 -21.052429 -69.116207 0.000008 -0.000002 -18.664997 -938.944903 47.419374 -64.390393 0.000005 -0.000003 -18.566601 706.189159 -0.228808 2.018558
25.685894 66.568100 40.560188 683.608554 24.632655 -20.637550 -0.153497 1.163098 7.852407 42.393478 -8.040782 -8.253593 0.000009 -0.000007 3.343300 -19.316921 -11.078378 -1.873360 -0.000002 -0.000007 7.785498 51.944121 -9.798083 -1.939222 0.000000 0.000005 2.173902 11.290311 -5.548274 12.885591 2.676297 -1.652400 4.938300 -4.980736 13.909182 2.722051 4.299007 0.000010 0.000001 16.379318 0.802312 -101.617533 -0.000011 0.000000 -10.245113 10.456357 724.845739 -2.144583 0.000008 0.000000 -12.703310 914.367369 -131.754240 429.887571 -2.534595 -1.686393 5.194996 -3.729419 6.302510 1.546375 -4.144106 0.000004 0.000000 52.204755 -19.038164 153.732423 -0.000004 -0.000010 -10.116500 -87.278760 -12.620912 -21.283192 0.000007 0.000001 -12.937805 -360.570932 -369.611671 18.059643 2.175593 0.064494 -2.662899 -273.832393 -40.346105 79.779062 -0.000000 -0.000012 -18.585814 0.794850 -249.625984 27.553010 -0.000008 -0.000000 -18.979504 327.785095 23.221839 -17.365795 -2.092402 -0.058102 -2.581196 242.270799 -21.064597 -69.081776 0.000016 0.000010 -18.664995 -938.975939 47.477731 -64.366084 0.000008 -0.000008 -18.566601 706.049823 -0.098899 2.442255
25.694498 66.577400 40.557495 683.660463 24.568583 -20.635070 -0.153499 1.163092 7.852415 42.329418 -7.988219 -8.157418 0.000003 0.000008 3.343303 -19.065404 -11.058009 -1.787281 0.000002 -0.000010 7.785500 51.612704 -9.866055 -2.030385 -0.000003 -0.000003 2.173909 11.375432 -5.450835 12.876113 2.676300 -1.652400 4.938296 -5.558919 14.169293 2.493067 4.298997 0.000002 -0.000006 16.714685 0.557026 -101.320665 -0.000008 0.000008 -10.245096 10.349729 724.816506 -2.115027 0.000004 -0.000004 -12.703309 914.297701 -131.596121 429.889156 -2.534598 -1.686402 5.194997 -3.807475 6.392150 1.208336 -4.144106 0.000002 -0.000010 52.359786 -18.968386 154.044904 -0.000008 -0.000011 -10.116503 -87.049914 -12.532811 -21.237346 0.000003 -0.000002 -12.937803 -360.630600 -369.612108 18.205210 2.175595 0.064502 -2.662889 -273.687511 -40.108233 79.899239 0.000001 -0.000009 -18.585815 2.016885 -249.683384 26.179406 -0.000003 -0.000004 -18.979492 328.846479 23.452925 -18.701869 -2.092401 -0.058102 -2.581185 241.715067 -20.246626 -69.240749 0.000007 0.000000 -18.665005 -937.933270 47.356792 -64.594424 0.000009 -0.000003 -18.566603 706.122496 -0.145581 2.445647
25.701204 66.584099 40.556091 683.716525 24.514676 -20.624991 -0.153502 1.163096 7.852400 42.265631 -7.954064 -8.039122 0.000006 0.000012 3.343297 -19.057686 -11.013748 -1.786207 -0.000010 0.000008 7.785504 51.520824 -9.903710 -2.132374 0.000004 0.000005 2.173912 11.412012 -5.365351 12.871941 2.676295 -1.652399 4.938298 -5.616488 14.260676 2.236990 4.299005 0.000015 -0.000004 16.724210 0.483243 -101.103855 -0.000006 0.000000 -10.245102 10.271075 724.819456 -2.117133 -0.000007 -0.000004 -12.703319 914.275899 -131.509856 429.950300 -2.534600 -1.686395 5.194997 -3.625096 6.477971 0.906082 -4.144096 0.000004 0.000006 52.484359 -18.886214 154.367056 0.000002 -0.000009 -10.116499 -86.884063 -12.393675 -21.150053 0.000007 -0.000008 -12.937805 -360.624781 -369.602874 18.318685 2.175594 0.064499 -2.662897 -273.669943 -40.037404 79.884704 0.000001 -0.000009 -18.585810 3.050092 -249.749091 25.142345 -0.000005 0.000011 -18.979507 329.559988 23.632547 -19.587630 -2.092404 -0.058104 -2.581202 241.925464 -20.575352 -69.124759 0.000008 0.000003 -18.665005 -940.982813 50.422509 -62.874521 0.000013 -0.000006 -18.566599 709.362957 0.149963 3.364372
25.705999 66.587982 40.556393 683.781658 24.462620 -20.606717 -0.153503 1.163097 7.852401 42.193477 -7.929296 -7.943181 -0.000003 0.000002 3.343304 -19.084375 -10.963786 -1.792589 -0.000004 -0.000001 7.785504 51.496010 -9.926036 -2.202826 -0.000002 0.000003 2.173902 11.394001 -5.308867 12.852185 2.676296 -1.652395 4.938306 -5.460416 14.180234 1.967026 4.299002 0.000014 -0.000005 16.549335 0.567382 -100.964089 -0.000008 0.000007 -10.245097 9.984624 724.845739 -2.125090 0.000006 0.000011 -12.703319 914.518835 -131.525401 430.015296 -2.534597 -1.686399 5.195004 -3.493894 6.484356 0.786827 -4.144100 -0.000010 0.000001 52.651241 -18.903179 154.522252 -0.000008 -0.000009 -10.116494 -86.723274 -12.270577 -21.081510 0.000007 0.000016 -12.937807 -360.547737 -369.598338 18.380280 2.175598 0.064485 -2.662895 -273.636229 -39.903447 79.862089 -0.000001 -0.000007 -18.585808 3.700825 -249.791137 24.371093 -0.000002 0.000011 -18.979509 329.989224 23.754430 -20.041727 -2.092401 -0.058113 -2.581194 242.218316 -21.039549 -68.958703 0.000009 0.000002 -18.665016 -942.196510 51.111019 -62.327628 0.000008 -0.000003 -18.566603 709.844075 0.353893 3.988150
25.708401 66.587494 40.558193 683.853402 24.407647 -20.579059 -0.153504 1.163092 7.852404 42.111176 -7.920114 -7.891274 -0.000003 -0.000003 3.343309 -19.075743 -10.947423 -1.793097 -0.000003 -0.000006 7.785502 51.433182 -9.888592 -2.245675 -0.000003 0.000000 2.173903 11.379898 -5.316469 12.833512 2.676293 -1.652393 4.938306 -5.408242 14.175355 1.851587 4.299005 0.000002 -0.000003 16.444840 0.573856 -100.914508 -0.000008 0.000006 -10.245101 9.592475 724.884643 -2.132947 0.000005 -0.000015 -12.703303 914.868049 -131.553705 430.119005 -2.534602 -1.686399 5.194999 -3.414057 6.527603 0.627713 -4.144106 -0.000002 0.000001 52.991036 -18.931584 154.795077 -0.000003 -0.000009 -10.116499 -86.413142 -12.150012 -21.016359 -0.000000 -0.000000 -12.937794 -360.412963 -369.581837 18.425962 2.175599 0.064489 -2.662896 -273.605931 -39.719466 79.821620 -0.000001 -0.000003 -18.585808 4.081034 -249.818704 23.798696 -0.000003 0.000004 -18.979504 330.276529 23.865057 -20.358689 -2.092408 -0.058109 -2.581196 242.584441 -21.629744 -68.733806 0.000010 0.000002 -18.665009 -943.704070 51.890183 -61.658283 0.000003 -0.000009 -18.566603 710.415516 0.562412 4.638926
